<?xml version="1.0" encoding="utf-8"?>
<!-- Generator: Adobe Illustrator 22.0.1, SVG Export Plug-In . SVG Version: 6.00 Build 0)  -->
<svg version="1.1" id="圖層_1" xmlns="http://www.w3.org/2000/svg" xmlns:xlink="http://www.w3.org/1999/xlink" x="0px" y="0px"
	 viewBox="0 0 192 60" style="enable-background:new 0 0 192 60;" xml:space="preserve">
<style type="text/css">
	.st0{fill:#858B8B;}
	.st1{fill:#171719;}
	.st2{fill:#E5E5E5;}
	.st3{fill:#FFFFFF;}
	.st4{fill:#FFC408;}
	.st5{fill:#58B2DC;}
	.st6{fill:#CB4042;}
	.st7{fill:#9CC5A1;}
	.st8{fill:#227D51;}
	.st9{fill:#2D3A3A;}
	.st10{fill:#734338;}
	.st11{opacity:0.5;fill:#FFFFFF;}
	.st12{opacity:0.5;fill:#FFC408;}
	.st13{opacity:0.5;fill:#58B2DC;}
	.st14{opacity:0.5;fill:#CB4042;}
	.st15{opacity:0.5;fill:#9CC5A1;}
	.st16{opacity:0.5;fill:#227D51;}
	.st17{opacity:0.5;}
	.st18{fill:#EED071;}
	.st19{fill:none;}
	.st20{clip-path:url(#SVGID_4_);}
	.st21{opacity:0.5;fill:#FFFFFF;stroke:#3D3D3D;stroke-miterlimit:10;}
	.st22{opacity:0.5;fill:none;stroke:#FFFFFF;stroke-width:4;stroke-miterlimit:10;}
	.st23{clip-path:url(#SVGID_10_);}
	.st24{opacity:0.8;fill:none;stroke:#FFFFFF;stroke-width:4;stroke-miterlimit:10;}
	.st25{fill:#2C2D31;}
	.st26{opacity:0.5;fill:#FFFFFF;stroke:#3D3D3D;stroke-width:2;stroke-miterlimit:10;}
</style>
<g>
	<path class="st5" d="M180,60H29c-6.6,0-12-5.4-12-12V12c0-6.6,5.4-12,12-12h151c6.6,0,12,5.4,12,12v36C192,54.6,186.6,60,180,60z"
		/>
	<g>
		<circle class="st5" cx="30" cy="30" r="30"/>
		<path class="st3" d="M45,25.4H34.5V15c0-0.4-0.4-0.8-0.8-0.8h-7.6c-0.4,0-0.8,0.4-0.8,0.8v10.4H15c-0.4,0-0.8,0.4-0.8,0.8v7.7
			c0,0.4,0.4,0.8,0.8,0.8h10.4V45c0,0.4,0.4,0.8,0.8,0.8h7.6c0.4,0,0.8-0.4,0.8-0.8V34.7H45c0.4,0,0.8-0.4,0.8-0.8v-7.7
			C45.8,25.8,45.5,25.4,45,25.4z"/>
	</g>
</g>
</svg>
