<?xml version="1.0" encoding="utf-8"?>
<!-- Generator: Adobe Illustrator 22.0.1, SVG Export Plug-In . SVG Version: 6.00 Build 0)  -->
<svg version="1.1" id="圖層_1" xmlns="http://www.w3.org/2000/svg" xmlns:xlink="http://www.w3.org/1999/xlink" x="0px" y="0px"
	 viewBox="0 0 70 70" style="enable-background:new 0 0 70 70;" xml:space="preserve">
<style type="text/css">
	.st0{fill:#858B8B;}
	.st1{fill:#979D9D;}
</style>
<path class="st1" d="M6.9,47.4C7.3,47.8,7.4,48.5,7,49c0,0,0,0,0,0c-0.1,0.1-0.2,0.2-0.3,0.4c-0.4,0.5-1.1,0.6-1.6,0.2
	c-0.5-0.4-0.6-1.1-0.2-1.6c0.1-0.1,0.2-0.3,0.3-0.4C5.7,47,6.4,47,6.9,47.4C6.9,47.4,6.9,47.4,6.9,47.4z M4,51.2
	c-0.5-0.3-1.2-0.1-1.5,0.5c0,0,0,0,0,0C0.9,54.8,0,58.3,0,61.9v7C0,69.5,0.5,70,1.1,70s1.1-0.5,1.1-1.1v-7c0-3.2,0.8-6.4,2.2-9.2
	C4.8,52.1,4.5,51.5,4,51.2z M53,61.9v7c0,0.6-0.5,1.1-1.1,1.1s-1.1-0.5-1.1-1.1v-7c0-8.8-5.7-16.5-14.1-19.1c-2.1,2-4.8,3.2-7.7,3.4
	l2.6,2.7l4.4-3.8c0.5-0.4,1.2-0.4,1.6,0.1c0.4,0.5,0.4,1.2-0.1,1.6c0,0,0,0,0,0l-5.2,4.5c-0.5,0.4-1.1,0.4-1.5-0.1l-1.7-1.8
	l-1.4,2.7l3.2,16.5c0.1,0.6-0.3,1.2-0.9,1.3c-0.6,0.1-1.2-0.3-1.3-0.9l-2.2-11.2l-2.2,11.2c-0.1,0.5-0.6,0.9-1.1,0.9
	c-0.1,0-0.1,0-0.2,0c-0.6-0.1-1-0.7-0.9-1.3c0,0,0,0,0,0l3.2-16.5L24,49.4l-1.7,1.8c-0.4,0.4-1.1,0.5-1.5,0.1l-8.1-7
	c-1,0.5-1.9,1.1-2.8,1.8c-0.5,0.4-1.2,0.3-1.6-0.2c-0.4-0.5-0.3-1.2,0.2-1.6c1.2-0.9,2.5-1.7,3.8-2.4l0,0c0.8-0.4,1.6-0.7,2.4-1
	c-1.5-2.1-2.4-4.6-2.5-7.2c-2.9-0.6-4.7-3.4-4.1-6.3c0.4-2,2-3.6,4.1-4.1c0.1-2.4,0.8-4.8,2-6.9c0,0-0.1-0.1-0.1-0.1
	c-3.5-3.8-3-9.9-3-10.1c0.1-0.6,0.5-1,1.1-1h4.1c0.6,0,1.1,0.5,1.1,1.1S17,7.6,16.4,7.6h-3c0,1.7,0.3,5.1,2.4,7.4
	c1.4,1.5,3.4,2.3,5.9,2.3h6.7c3.6,0,7.1,1.4,9.7,4l0.4,0.4c-0.4-5.1-2.5-14.1-12-14.1h-5.7c-0.6,0-1.1-0.5-1.1-1.1s0.5-1.1,1.1-1.1
	h5.7c10.4,0,14.2,9.3,14.3,18.1c2.9,0.6,4.7,3.4,4.1,6.3c-0.4,2-2,3.6-4.1,4.1c-0.1,2.6-1,5.1-2.5,7.2C47.2,44.2,53,52.5,53,61.9
	L53,61.9z M12.2,31.5v-5.7c-1.6,0.6-2.3,2.4-1.7,3.9C10.8,30.5,11.4,31.1,12.2,31.5L12.2,31.5z M14.4,33.3c0,5.9,4.8,10.7,10.7,10.7
	H28c5.9,0,10.7-4.8,10.7-10.7v-4.7c0-0.6,0.5-1.1,1.1-1.1c0.6,0,1.1,0.5,1.1,1.1v2.8c1.6-0.6,2.3-2.4,1.7-4
	c-0.5-1.2-1.6-1.9-2.8-1.9h0c-0.1,0-0.1,0-0.2,0c0,0-0.1,0-0.1,0c0,0-0.1,0-0.1,0c0,0-0.1,0-0.1-0.1c0,0-0.1,0-0.1,0
	c0,0-0.1-0.1-0.1-0.1c0,0,0,0,0,0l0,0l-2.4-2.4c-2.2-2.1-5.1-3.3-8.1-3.3h-6.7c-2,0.1-4-0.5-5.8-1.5c-1,1.8-1.6,3.9-1.6,6L14.4,33.3
	z M24,46.2c-2.9-0.2-5.6-1.4-7.7-3.4c-0.5,0.2-1,0.3-1.5,0.5l6.5,5.6L24,46.2z M27.4,47.7l-0.9-1l-0.9,1l0.9,1.8L27.4,47.7z
	 M10.7,57.9c-0.6,0-1.1,0.5-1.1,1.1v9.8c0,0.6,0.5,1.1,1.1,1.1c0.6,0,1.1-0.5,1.1-1.1v-9.8C11.9,58.4,11.4,57.9,10.7,57.9L10.7,57.9
	z M42.3,57.9c-0.6,0-1.1,0.5-1.1,1.1v9.8c0,0.6,0.5,1.1,1.1,1.1c0.6,0,1.1-0.5,1.1-1.1v-9.8C43.4,58.4,42.9,57.9,42.3,57.9
	L42.3,57.9z M22.1,35.7c0,2.4,2,4.3,4.5,4.3c2.4,0,4.3-1.9,4.3-4.3c0-0.6-0.5-1.1-1.1-1.1c-0.6,0-1.1,0.5-1.1,1.1
	c0,1.2-1,2.1-2.2,2.1c-1.1,0-2.1-0.9-2.1-2.1c0-0.6-0.5-1.1-1.1-1.1C22.6,34.6,22.1,35.1,22.1,35.7z M19.4,26.6c0-1,0.8-1.9,1.9-1.9
	c1,0,1.9,0.8,1.9,1.9c0,1-0.8,1.9-1.9,1.9C20.3,28.5,19.4,27.6,19.4,26.6z M29.8,26.6c0-1,0.8-1.9,1.9-1.9s1.9,0.8,1.9,1.9
	c0,1-0.8,1.9-1.9,1.9C30.7,28.5,29.8,27.6,29.8,26.6L29.8,26.6z M68.9,0H43.9c-0.6,0-1.1,0.5-1.1,1.1v16.5c0,0.6,0.5,1.1,1.1,1.1
	s1.1-0.5,1.1-1.1V2.2h22.7v14.2H52.7c-0.3,0-0.6,0.1-0.8,0.3l-2.5,2.5v-1.7c0-0.6-0.5-1.1-1.1-1.1s-1.1,0.5-1.1,1.1V22
	c0,0.6,0.5,1.1,1.1,1.1c0.3,0,0.6-0.1,0.8-0.3l4.1-4.1h15.8c0.6,0,1.1-0.5,1.1-1.1V1.1C70,0.5,69.5,0,68.9,0z M49.3,8.9
	c0-1,0.8-1.9,1.9-1.9s1.9,0.8,1.9,1.9s-0.8,1.9-1.9,1.9C50.2,10.8,49.3,10,49.3,8.9z M61.6,10.8c-1,0-1.9-0.8-1.9-1.9
	c0-1,0.8-1.9,1.9-1.9c1,0,1.9,0.8,1.9,1.9C63.5,10,62.7,10.8,61.6,10.8z M56.4,10.8c-1,0-1.9-0.8-1.9-1.9c0-1,0.8-1.9,1.9-1.9
	c1,0,1.9,0.8,1.9,1.9C58.3,10,57.5,10.8,56.4,10.8L56.4,10.8z"/>
</svg>
