<?xml version="1.0" encoding="utf-8"?>
<!-- Generator: Adobe Illustrator 22.0.1, SVG Export Plug-In . SVG Version: 6.00 Build 0)  -->
<svg version="1.1" id="圖層_1" xmlns="http://www.w3.org/2000/svg" xmlns:xlink="http://www.w3.org/1999/xlink" x="0px" y="0px"
	 viewBox="0 0 60 60" style="enable-background:new 0 0 60 60;" xml:space="preserve">
<style type="text/css">
	.st0{fill:#858B8B;}
	.st1{fill:#FFFFFF;}
	.st2{fill:#CB4042;}
	.st3{fill:#2C2D31;}
	.st4{fill:#EED071;}
	.st5{fill:#58B2DC;}
</style>
<g>
	<g>
		<path class="st2" d="M48,60H12C5.4,60,0,54.6,0,48V12C0,5.4,5.4,0,12,0h36c6.6,0,12,5.4,12,12v36C60,54.6,54.6,60,48,60z"/>
	</g>
	<g>
		<path class="st3" d="M35.1,24.9c-0.5,0-0.9,0.4-0.9,0.9v16.3c0,0.5,0.4,0.9,0.9,0.9c0.5,0,0.9-0.4,0.9-0.9V25.8
			C36,25.3,35.6,24.9,35.1,24.9z"/>
		<path class="st3" d="M24.9,24.9c-0.5,0-0.9,0.4-0.9,0.9v16.3c0,0.5,0.4,0.9,0.9,0.9c0.5,0,0.9-0.4,0.9-0.9V25.8
			C25.8,25.3,25.4,24.9,24.9,24.9z"/>
		<path class="st3" d="M17.5,22.5v21.3c0,1.3,0.5,2.4,1.3,3.3c0.8,0.9,1.9,1.3,3.1,1.3h16.4c1.2,0,2.3-0.5,3.1-1.3
			c0.8-0.8,1.3-2,1.3-3.3V22.5c1.6-0.4,2.6-2,2.4-3.6c-0.2-1.6-1.6-2.9-3.3-2.9h-4.4v-1.1c0-0.9-0.4-1.8-1-2.4c-0.6-0.6-1.5-1-2.4-1
			h-7.7c-0.9,0-1.8,0.4-2.4,1c-0.6,0.6-1,1.5-1,2.4V16h-4.4c-1.7,0-3.1,1.2-3.3,2.9C14.8,20.6,15.9,22.1,17.5,22.5z M38.2,46.7H21.8
			c-1.5,0-2.6-1.3-2.6-2.9V22.6h21.6v21.2C40.8,45.5,39.7,46.7,38.2,46.7z M24.5,14.9c0-0.5,0.2-0.9,0.5-1.2
			c0.3-0.3,0.8-0.5,1.2-0.5h7.7c0.5,0,0.9,0.2,1.2,0.5c0.3,0.3,0.5,0.8,0.5,1.2V16H24.5V14.9z M18.3,17.8h23.4
			c0.9,0,1.6,0.7,1.6,1.6s-0.7,1.6-1.6,1.6H18.3c-0.9,0-1.6-0.7-1.6-1.6S17.4,17.8,18.3,17.8z"/>
		<path class="st3" d="M30,24.9c-0.5,0-0.9,0.4-0.9,0.9v16.3c0,0.5,0.4,0.9,0.9,0.9s0.9-0.4,0.9-0.9V25.8
			C30.9,25.3,30.5,24.9,30,24.9z"/>
	</g>
</g>
</svg>
