<?xml version="1.0" encoding="utf-8"?>
<!-- Generator: Adobe Illustrator 22.0.1, SVG Export Plug-In . SVG Version: 6.00 Build 0)  -->
<svg version="1.1" id="圖層_1" xmlns="http://www.w3.org/2000/svg" xmlns:xlink="http://www.w3.org/1999/xlink" x="0px" y="0px"
	 viewBox="0 0 70 69.8" style="enable-background:new 0 0 70 69.8;" xml:space="preserve">
<style type="text/css">
	.st0{fill:#858B8B;}
	.st1{fill:#979D9D;}
</style>
<path class="st1" d="M15.6,68.7c0,0.6-0.5,1.1-1.1,1.1h-0.4c-0.6,0-1.1-0.5-1.1-1.1c0-0.6,0.5-1.1,1.1-1.1l0,0h0.4
	C15.1,67.6,15.6,68.1,15.6,68.7L15.6,68.7z M66.7,68.7c0,0.6-0.5,1.1-1.1,1.1H49.8c-0.6,0-1.1-0.5-1.1-1.1c0-0.6,0.5-1.1,1.1-1.1
	h14.6c-0.4-3.1-2.3-5.8-5.2-7.1c-3,2.1-7.2,1.4-9.4-1.7c-2.1-3-1.4-7.2,1.7-9.4c3-2.1,7.2-1.4,9.4,1.7c1.6,2.3,1.6,5.4,0,7.7
	C64.5,60.8,66.7,64.6,66.7,68.7L66.7,68.7z M55.4,59.5c2.5,0,4.5-2,4.5-4.5c0-2.5-2-4.5-4.5-4.5c-2.5,0-4.5,2-4.5,4.5c0,0,0,0,0,0
	C50.9,57.5,52.9,59.5,55.4,59.5z M48.8,62.5c-1.6,1.7-2.5,3.9-2.5,6.2c0,0.6-0.5,1.1-1.1,1.1h-26c-0.6,0-1.1-0.5-1.1-1.1
	c0-0.6,0.5-1.1,1.1-1.1h4.4c-0.4-3.1-2.3-5.8-5.2-7.1c-2.3,1.6-5.4,1.6-7.7,0c-2.8,1.3-4.8,4-5.2,7.1h3.7c0.6,0,1.1,0.5,1.1,1.1
	s-0.5,1.1-1.1,1.1H4.4c-0.6,0-1.1-0.5-1.1-1.1c0,0,0,0,0,0c0-4.1,2.2-7.9,5.8-9.9c-2.1-3-1.4-7.2,1.7-9.3c3-2.1,7.2-1.4,9.3,1.7
	c1.6,2.3,1.6,5.4,0,7.7c2,1.1,3.7,2.9,4.7,5c1-2.1,2.7-3.9,4.7-5c-2.1-3-1.4-7.2,1.7-9.3c3-2.1,7.2-1.4,9.3,1.7
	c1.6,2.3,1.6,5.4,0,7.7c2,1.1,3.7,2.9,4.7,5c0.5-1.1,1.2-2,2-2.9c0.4-0.5,1.1-0.5,1.6-0.1C49.2,61.3,49.2,62,48.8,62.5
	C48.8,62.5,48.8,62.5,48.8,62.5L48.8,62.5z M14.6,59.5c2.5,0,4.5-2,4.5-4.5c0-2.5-2-4.5-4.5-4.5s-4.5,2-4.5,4.5c0,0,0,0,0,0
	C10.1,57.5,12.1,59.5,14.6,59.5z M30.5,55c0,2.5,2,4.5,4.5,4.5c2.5,0,4.5-2,4.5-4.5c0-2.5-2-4.5-4.5-4.5
	C32.5,50.5,30.5,52.5,30.5,55L30.5,55z M44,67.6c-0.4-3.1-2.3-5.8-5.2-7.1c-2.3,1.6-5.4,1.6-7.7,0c-2.8,1.3-4.8,4-5.2,7.1L44,67.6z
	 M21.5,38H1.1C0.5,38,0,37.5,0,36.9c0,0,0,0,0,0C0,32.8,2.2,29,5.8,27c-2.1-3-1.4-7.2,1.7-9.3s7.2-1.4,9.3,1.7
	c1.6,2.3,1.6,5.4,0,7.7c3.6,2,5.8,5.8,5.8,9.9C22.6,37.5,22.1,38,21.5,38z M6.8,23.2c0,2.5,2,4.5,4.5,4.5s4.5-2,4.5-4.5
	c0-2.5-2-4.5-4.5-4.5C8.8,18.7,6.9,20.7,6.8,23.2z M20.3,35.8c-0.4-3.1-2.3-5.8-5.2-7.1c-2.3,1.6-5.4,1.6-7.7,0
	c-2.8,1.3-4.8,4-5.2,7.1H20.3z M70,1.1v25.6c0,0.6-0.5,1.1-1.1,1.1H51.2l5.7,13c0.2,0.6,0,1.2-0.6,1.5c-0.1,0.1-0.3,0.1-0.4,0.1
	h-3.5c-0.4,0-0.8-0.3-1-0.7L46,29.5l-5.4,12.3c-0.2,0.4-0.6,0.7-1,0.7h-3.5c-0.6,0-1.1-0.5-1.1-1.1c0-0.2,0-0.3,0.1-0.4l5.7-13h-9.3
	c-0.6,0-1.1-0.5-1.1-1.1s0.5-1.1,1.1-1.1h36.3V1.1c0-0.6,0.5-1.1,1.1-1.1S70,0.5,70,1.1z M44.3,27.8h-1l-5.4,12.4h1L44.3,27.8z
	 M48.7,27.8h-1l5.4,12.4h1L48.7,27.8z M23.2,27.8H27c0.6,0,1.1-0.5,1.1-1.1s-0.5-1.1-1.1-1.1h-2.7V2.2h40.4c0.6,0,1.1-0.5,1.1-1.1
	S65.3,0,64.7,0H23.2c-0.6,0-1.1,0.5-1.1,1.1v25.6C22.1,27.3,22.6,27.8,23.2,27.8z M35.6,6.6c4,0,7.3,3.3,7.3,7.3s-3.3,7.3-7.3,7.3
	s-7.3-3.3-7.3-7.3C28.3,9.9,31.6,6.6,35.6,6.6z M35.6,8.9c-2.8,0-5,2.3-5,5c0,2.8,2.3,5,5,5c2.8,0,5-2.3,5-5
	C40.6,11.1,38.3,8.9,35.6,8.9z M62.5,8.2H47.2c-0.6,0-1.1,0.5-1.1,1.1s0.5,1.1,1.1,1.1h15.3c0.6,0,1.1-0.5,1.1-1.1
	S63.1,8.2,62.5,8.2z M62.5,12.8h-8.1c-0.6,0-1.1,0.5-1.1,1.1s0.5,1.1,1.1,1.1h8.1c0.6,0,1.1-0.5,1.1-1.1S63.1,12.8,62.5,12.8z
	 M47.2,15h3c0.6,0,1.1-0.5,1.1-1.1s-0.5-1.1-1.1-1.1h-3c-0.6,0-1.1,0.5-1.1,1.1S46.6,15,47.2,15z M47.2,19.6h15.3
	c0.6,0,1.1-0.5,1.1-1.1s-0.5-1.1-1.1-1.1H47.2c-0.6,0-1.1,0.5-1.1,1.1S46.6,19.6,47.2,19.6z"/>
</svg>
