<?xml version="1.0" encoding="utf-8"?>
<!-- Generator: Adobe Illustrator 22.0.1, SVG Export Plug-In . SVG Version: 6.00 Build 0)  -->
<svg version="1.1" id="圖層_1" xmlns="http://www.w3.org/2000/svg" xmlns:xlink="http://www.w3.org/1999/xlink" x="0px" y="0px"
	 viewBox="0 0 70 49.3" style="enable-background:new 0 0 70 49.3;" xml:space="preserve">
<style type="text/css">
	.st0{fill:#858B8B;}
	.st1{fill:#FFFFFF;}
	.st2{fill:#CB4042;}
	.st3{fill:#2C2D31;}
	.st4{fill:#EED071;}
	.st5{fill:#58B2DC;}
</style>
<path class="st1" d="M58.7,48.2c0,0.6-0.5,1.1-1.1,1.1h-0.9c-0.6,0-1.1-0.5-1.1-1.1c0-0.6,0.5-1.1,1.1-1.1h0.9
	C58.2,47.1,58.7,47.6,58.7,48.2z M21.7,2.2h0.5c0.6,0,1.1-0.5,1.1-1.1S22.8,0,22.2,0h-0.5c-0.6,0-1.1,0.5-1.1,1.1S21.1,2.2,21.7,2.2
	L21.7,2.2L21.7,2.2z M66.5,10.9v7h2.4c0.6,0,1.1,0.5,1.1,1.1v11.3c0,0.6-0.5,1.1-1.1,1.1h-2.4v10h2.4c0.6,0,1.1,0.5,1.1,1.1v5.6
	c0,0.6-0.5,1.1-1.1,1.1h-6.4c-0.6,0-1.1-0.5-1.1-1.1s0.5-1.1,1.1-1.1h5.3v-3.4H30V47h21.8c0.6,0,1.1,0.5,1.1,1.1s-0.5,1.1-1.1,1.1
	h-39C5.8,49.3,0,43.5,0,36.4c0-5.1,3-9.7,7.7-11.8c-6.5-2.9-9.4-10.5-6.5-17C3.2,3,7.8,0,12.9,0H17c0.6,0,1.1,0.5,1.1,1.1
	S17.6,2.2,17,2.2h-4.1C7,2.2,2.2,7,2.2,12.9S7,23.5,12.9,23.5h32.8c0.6,0,1.1,0.5,1.1,1.1c0,0.6-0.5,1.1-1.1,1.1H12.9
	C7,25.8,2.2,30.5,2.2,36.4S7,47,12.9,47h6.4v-3.4h-6.4c-4,0-7.2-3.3-7.2-7.3c0-4,3.2-7.1,7.2-7.2h54.8v-3.4H50.1
	c-0.6,0-1.1-0.5-1.1-1.1s0.5-1.1,1.1-1.1h17.6v-3.4h-1.3v0.6c0,0.6-0.5,1.1-1.1,1.1c-0.3,0-0.6-0.1-0.8-0.4l-1.1-1.3h-4.5l-1.1,1.3
	c-0.4,0.5-1.1,0.5-1.6,0.1c-0.2-0.2-0.4-0.5-0.4-0.8v-0.6H12.9c-4,0-7.2-3.3-7.2-7.3c0-4,3.2-7.1,7.2-7.2h54.8V2.2H27
	c-0.6,0-1.1-0.5-1.1-1.1S26.3,0,27,0h41.9C69.5,0,70,0.5,70,1.1l0,0v5.6c0,0.6-0.5,1.1-1.1,1.1h-2.4L66.5,10.9z M27.8,39.5h-6.3v5.7
	l2.3-2.6c0.4-0.5,1.1-0.5,1.6-0.1c0,0,0.1,0.1,0.1,0.1l2.3,2.6L27.8,39.5z M26.5,47.1L24.7,45l-1.8,2.1H26.5z M64.2,31.4H12.9
	c-2.8,0-5,2.3-5,5.1c0,2.7,2.2,4.9,5,5h6.4v-3c0-0.6,0.5-1.1,1.1-1.1h8.5c0.6,0,1.1,0.5,1.1,1.1v3.1h34.2v-1.9H33.8
	c-0.6,0-1.1-0.5-1.1-1.1s0.5-1.1,1.1-1.1h30.4v-1.7H20.4c-0.6,0-1.1-0.5-1.1-1.1s0.5-1.1,1.1-1.1h43.8V31.4z M55.8,17.9V16H20.4
	c-0.6,0-1.1-0.5-1.1-1.1c0-0.6,0.5-1.1,1.1-1.1h35.3v-2.8c0-0.6,0.5-1.1,1.1-1.1h7.4V7.9H12.9c-2.8,0-5,2.3-5,5.1c0,2.7,2.2,4.9,5,5
	L55.8,17.9z M60.3,15.1c0.4-0.5,1.1-0.5,1.6-0.1c0,0,0.1,0.1,0.1,0.1l2.3,2.6V12H58v5.7L60.3,15.1z M61.4,17.9l-0.3-0.4l-0.3,0.4
	H61.4z M20.4,12.5h31.4c0.6,0,1.1-0.5,1.1-1.1c0-0.6-0.5-1.1-1.1-1.1H20.4c-0.6,0-1.1,0.5-1.1,1.1C19.3,12,19.8,12.5,20.4,12.5
	L20.4,12.5z"/>
</svg>
