<?xml version="1.0" encoding="utf-8"?>
<!-- Generator: Adobe Illustrator 22.0.1, SVG Export Plug-In . SVG Version: 6.00 Build 0)  -->
<svg version="1.1" id="圖層_1" xmlns="http://www.w3.org/2000/svg" xmlns:xlink="http://www.w3.org/1999/xlink" x="0px" y="0px"
	 viewBox="0 0 70 51.6" style="enable-background:new 0 0 70 51.6;" xml:space="preserve">
<style type="text/css">
	.st0{fill:#858B8B;}
	.st1{fill:#FFFFFF;}
	.st2{fill:#CB4042;}
	.st3{fill:#2C2D31;}
	.st4{fill:#EED071;}
	.st5{fill:#58B2DC;}
</style>
<path class="st1" d="M24.3,44.7c0,0.6-0.5,1.1-1.1,1.1h-0.4c-0.6,0-1.1-0.5-1.1-1.1s0.5-1.1,1.1-1.1l0,0h0.4
	C23.8,43.6,24.3,44.1,24.3,44.7z M70,38.3v6.3c0,0.6-0.5,1.1-1.1,1.1l0,0H65v4.7c0,0.6-0.5,1.1-1.1,1.1h-5.8c-0.6,0-1.1-0.5-1.1-1.1
	v-4.7H27.5c-0.6,0-1.1-0.5-1.1-1.1s0.5-1.1,1.1-1.1h40.2v-4.1H2.2v4.1h15.6c0.6,0,1.1,0.5,1.1,1.1c0,0.6-0.5,1.1-1.1,1.1H13v4.7
	c0,0.6-0.5,1.1-1.1,1.1H6.1c-0.6,0-1.1-0.5-1.1-1.1v-4.7H1.1c-0.6,0-1.1-0.5-1.1-1.1v-6.3c0-0.6,0.5-1.1,1.1-1.1h5.4V2.1
	C6.5,1.5,7,1,7.6,1h10.2C18.5,1,19,1.5,19,2.1v4.1h7.5V2.1c0-0.6,0.5-1.1,1.1-1.1h10.2c0.6,0,1.1,0.5,1.1,1.1v1.6l8-3.6
	c0.6-0.3,1.2,0,1.5,0.6c0,0,0,0,0,0l15,33c0.3,0.6,0,1.2-0.6,1.5c0,0,0,0,0,0l-4.6,2.1h10.7C69.5,37.2,70,37.7,70,38.3
	C70,38.3,70,38.3,70,38.3L70,38.3z M10.8,45.8H7.2v3.6h3.6V45.8z M19,13.1h7.5v-1.3H19V13.1z M28.7,29.7h8V10.9h-8V29.7z M28.7,33.3
	h8V32h-8V33.3z M38.9,37.2h12.4L38.9,10V37.2z M60.9,33.5L48.4,6.2l-7.3,3.3l3.6,7.9l3.7-1.7c0.6-0.3,1.2-0.1,1.5,0.5
	c0.3,0.6,0.1,1.2-0.5,1.5c0,0-0.1,0-0.1,0l-3.7,1.7l7.9,17.4L60.9,33.5z M39.5,5.9l0.7,1.6l7.3-3.3l-0.7-1.6L39.5,5.9z M28.7,7.3
	v1.3h8V7.3h-4.9c-0.6,0-1.1-0.5-1.1-1.1s0.5-1.1,1.1-1.1h4.9V3.2h-8L28.7,7.3z M19,8.4v1.1h7.5V8.4H19z M8.7,3.2v1.7h8V3.2H8.7z
	 M8.7,37.2h17.7V15.3H19v17.3c0,0.6-0.5,1.1-1.1,1.1c-0.6,0-1.1-0.5-1.1-1.1V18.1h-4.6c-0.6,0-1.1-0.5-1.1-1.1s0.5-1.1,1.1-1.1h4.6
	V7.2h-8V37.2z M36.7,37.2v-1.7h-8v1.7H36.7z M62.8,45.8h-3.6v3.6h3.6V45.8z"/>
</svg>
