<?xml version="1.0" encoding="utf-8"?>
<!-- Generator: Adobe Illustrator 22.0.1, SVG Export Plug-In . SVG Version: 6.00 Build 0)  -->
<svg version="1.1" id="圖層_1" xmlns="http://www.w3.org/2000/svg" xmlns:xlink="http://www.w3.org/1999/xlink" x="0px" y="0px"
	 viewBox="0 0 100 100" style="enable-background:new 0 0 100 100;" xml:space="preserve">
<style type="text/css">
	.st0{opacity:0.5;}
	.st1{fill:#2D3A3A;}
	.st2{fill:#858B8B;}
	.st3{fill:#171719;}
	.st4{fill:#E5E5E5;}
	.st5{fill:#FFFFFF;}
	.st6{fill:#FFC408;}
	.st7{fill:#58B2DC;}
	.st8{fill:#CB4042;}
	.st9{fill:#9CC5A1;}
	.st10{fill:#227D51;}
	.st11{fill:#979D9D;}
	.st12{fill:#734338;}
	.st13{opacity:0.5;fill:#FFFFFF;}
	.st14{opacity:0.5;fill:#FFC408;}
	.st15{opacity:0.5;fill:#58B2DC;}
	.st16{opacity:0.5;fill:#CB4042;}
	.st17{opacity:0.5;fill:#9CC5A1;}
	.st18{opacity:0.5;fill:#227D51;}
	.st19{fill:#EED071;}
	.st20{fill:none;}
	.st21{clip-path:url(#SVGID_4_);}
	.st22{opacity:0.5;fill:#FFFFFF;stroke:#3D3D3D;stroke-miterlimit:10;}
	.st23{fill:#2C2D31;}
	.st24{opacity:0.5;fill:#FFFFFF;stroke:#3D3D3D;stroke-width:2;stroke-miterlimit:10;}
	.st25{clip-path:url(#SVGID_10_);}
	.st26{opacity:0.9;}
	.st27{fill:#FF9810;}
	.st28{fill:#F2F1EF;}
	.st29{fill:#E6E5E3;}
	.st30{clip-path:url(#SVGID_16_);}
</style>
<g>
	<circle class="st6" cx="50" cy="50" r="50"/>
	<path class="st27" d="M91.9,22.7L47.7,68.5l0.1,4.9h2l47.9-38.6C96.3,30.5,94.3,26.4,91.9,22.7z"/>
	<path class="st28" d="M99.1,20.5l-8.8-8.8c-1.2-1.2-3.1-1.2-4.4,0l-37.7,39L31.8,34.7c-1.2-1.2-3.1-1.2-4.4,0l-7.8,7.7
		c-1.2,1.2-1.2,3.1,0,4.3l26.1,25.9c0.7,0.7,1.6,0.9,2.6,0.9c0.9,0.1,1.9-0.2,2.6-0.9l48.2-47.7C100.2,23.7,100.2,21.7,99.1,20.5z"
		/>
	<path class="st29" d="M50.9,72.6l48.2-47.7c1.2-1.2,1.2-3.1,0-4.3l-1.4-1.3L48.2,67.9L20.9,41.3l-1.2,1.2c-1.2,1.2-1.2,3.1,0,4.3
		l26.1,25.9c0.7,0.7,1.6,0.9,2.6,0.9C49.2,73.5,50.2,73.3,50.9,72.6z"/>
</g>
</svg>
