<?xml version="1.0" encoding="utf-8"?>
<!-- Generator: Adobe Illustrator 22.0.1, SVG Export Plug-In . SVG Version: 6.00 Build 0)  -->
<svg version="1.1" id="圖層_1" xmlns="http://www.w3.org/2000/svg" xmlns:xlink="http://www.w3.org/1999/xlink" x="0px" y="0px"
	 viewBox="0 0 70 70.4" style="enable-background:new 0 0 70 70.4;" xml:space="preserve">
<style type="text/css">
	.st0{fill:#858B8B;}
	.st1{fill:#171719;}
	.st2{fill:#E5E5E5;}
	.st3{fill:#FFFFFF;}
	.st4{fill:#FFC408;}
	.st5{fill:#58B2DC;}
	.st6{fill:#CB4042;}
	.st7{fill:#9CC5A1;}
	.st8{fill:#227D51;}
	.st9{fill:#2D3A3A;}
	.st10{fill:#734338;}
	.st11{opacity:0.5;fill:#FFFFFF;}
	.st12{opacity:0.5;fill:#FFC408;}
	.st13{opacity:0.5;fill:#58B2DC;}
	.st14{opacity:0.5;fill:#CB4042;}
	.st15{opacity:0.5;fill:#9CC5A1;}
	.st16{opacity:0.5;fill:#227D51;}
	.st17{opacity:0.5;}
	.st18{fill:#EED071;}
	.st19{fill:none;}
	.st20{fill:#979D9D;}
	.st21{clip-path:url(#SVGID_4_);}
	.st22{opacity:0.5;fill:#FFFFFF;stroke:#3D3D3D;stroke-miterlimit:10;}
	.st23{opacity:0.5;fill:none;stroke:#FFFFFF;stroke-width:4;stroke-miterlimit:10;}
	.st24{clip-path:url(#SVGID_10_);}
	.st25{opacity:0.8;fill:none;stroke:#FFFFFF;stroke-width:4;stroke-miterlimit:10;}
	.st26{fill:#2C2D31;}
	.st27{opacity:0.5;fill:#FFFFFF;stroke:#3D3D3D;stroke-width:2;stroke-miterlimit:10;}
</style>
<path class="st20" d="M4.5,31.2v-25C4.5,2.8,7.3,0,10.8,0h43.9c0.6,0,1.1,0.5,1.1,1.1s-0.5,1.1-1.1,1.1H10.8c-2.2,0-4,1.8-4,4l0,0
	v25c0,0.6-0.5,1.1-1.1,1.1S4.5,31.9,4.5,31.2L4.5,31.2z M70,36.1c0,3.8-3.1,6.9-6.9,6.9H51c-0.5,2.9-3.1,5.1-6.1,5.1h-8.8v1.4h1.8
	c0.6,0,1.1,0.5,1.1,1.1v18.6c0,0.6-0.5,1.1-1.1,1.1s-1.1-0.5-1.1-1.1V51.7h-3.5v17.5c0,0.6-0.5,1.1-1.1,1.1c-0.6,0-1.1-0.5-1.1-1.1
	V50.6c0-0.6,0.5-1.1,1.1-1.1h1.8v-1.4h-8.8c-3,0-5.5-2.1-6.1-5.1H6.9C3.1,43,0,39.9,0,36.1C0,35.5,0.5,35,1.1,35h7.8V6.9
	c0-1.4,1.1-2.5,2.5-2.5h46.9c1.4,0,2.5,1.1,2.5,2.5v24.4c0,0.6-0.5,1.1-1.1,1.1s-1.1-0.5-1.1-1.1V6.9c0-0.1-0.1-0.2-0.2-0.2H11.4
	c-0.1,0-0.2,0.1-0.2,0.2V35h4c0.6,0,1.1,0.5,1.1,1.1s-0.5,1.1-1.1,1.1H2.4c0.5,2.1,2.4,3.6,4.6,3.6h56.1c2.2,0,4-1.5,4.6-3.6H25
	c-0.6,0-1.1-0.5-1.1-1.1S24.4,35,25,35l0,0h37.8V6.2c0-2.2-1.8-4-4-4c-0.6,0-1.1-0.5-1.1-1.1S58.3,0,58.9,0c3.4,0,6.2,2.8,6.2,6.2
	V35h3.8C69.5,35,70,35.5,70,36.1L70,36.1z M48.7,43H21.3c0.5,1.7,2,2.8,3.8,2.8h19.9C46.7,45.8,48.2,44.7,48.7,43z M19.5,35
	c-0.6,0-1.1,0.5-1.1,1.1s0.5,1.1,1.1,1.1h0.9c0.6,0,1.1-0.5,1.1-1.1S21,35,20.4,35H19.5z M37.4,40.1c0.6,0,1.1-0.5,1.1-1.1
	s-0.5-1.1-1.1-1.1h-5.1c-0.6,0-1.1,0.5-1.1,1.1s0.5,1.1,1.1,1.1H37.4z"/>
</svg>
