<?xml version="1.0" encoding="utf-8"?>
<!-- Generator: Adobe Illustrator 22.0.1, SVG Export Plug-In . SVG Version: 6.00 Build 0)  -->
<svg version="1.1" id="圖層_1" xmlns="http://www.w3.org/2000/svg" xmlns:xlink="http://www.w3.org/1999/xlink" x="0px" y="0px"
	 viewBox="0 0 60 60" style="enable-background:new 0 0 60 60;" xml:space="preserve">
<style type="text/css">
	.st0{fill:#858B8B;}
	.st1{fill:#FFFFFF;}
	.st2{fill:#CB4042;}
	.st3{fill:#2C2D31;}
	.st4{fill:#EED071;}
	.st5{fill:#58B2DC;}
</style>
<g>
	<circle class="st4" cx="30" cy="30" r="30"/>
	<g>
		<g id="Pencil_9_">
			<g>
				<path class="st3" d="M45.1,14.9c-1.2-1.2-2.7-1.8-4.4-1.8c-1.7,0-3.2,0.6-4.4,1.8L17.7,33.5c-0.1,0.1-0.2,0.2-0.2,0.4l-4.2,11.6
					c-0.1,0.4,0,0.8,0.2,1.1c0.2,0.2,0.5,0.3,0.8,0.3c0.1,0,0.2,0,0.3,0L25,43.6c0.2,0,0.3-0.1,0.4-0.3l19.6-19.6
					c1.2-1.2,1.8-2.7,1.8-4.4C46.9,17.7,46.2,16.1,45.1,14.9z M23.8,41.8L19.8,43c-0.2-0.7-0.6-1.3-1.1-1.8c-0.4-0.4-0.9-0.7-1.4-1
					l1.8-4.9h2.4v2.1c0,0.6,0.5,1.1,1.1,1.1h1.9L23.8,41.8z M39.3,26.5L26.4,39.3l0.4-1.7c0.1-0.3,0-0.6-0.2-0.9
					c-0.2-0.2-0.5-0.4-0.8-0.4h-2.1v-2.1c0-0.6-0.5-1.1-1.1-1.1H21l12.5-12.5l0,0c0.8-0.8,1.8-1.2,2.9-1.2s2.1,0.4,2.9,1.2
					c0.8,0.8,1.2,1.8,1.2,2.9S40.1,25.7,39.3,26.5z M43.6,22.2l-1,1c-0.1-1.5-0.7-2.9-1.8-4c-1.1-1.1-2.5-1.7-4-1.8l1-1l0,0
					c0.8-0.8,1.8-1.2,2.9-1.2s2.1,0.4,2.9,1.2c0.8,0.8,1.2,1.8,1.2,2.9C44.8,20.4,44.3,21.4,43.6,22.2z M36.6,21.9L26.1,32.4
					c-0.4,0.4-0.4,1.1,0,1.5c0.2,0.2,0.5,0.3,0.7,0.3c0.3,0,0.5-0.1,0.7-0.3l10.5-10.5c0.4-0.4,0.4-1.1,0-1.5
					C37.7,21.5,37,21.5,36.6,21.9z"/>
			</g>
		</g>
	</g>
</g>
</svg>
