<?xml version="1.0" encoding="utf-8"?>
<!-- Generator: Adobe Illustrator 22.0.1, SVG Export Plug-In . SVG Version: 6.00 Build 0)  -->
<svg version="1.1" id="圖層_1" xmlns="http://www.w3.org/2000/svg" xmlns:xlink="http://www.w3.org/1999/xlink" x="0px" y="0px"
	 viewBox="0 0 385 69" style="enable-background:new 0 0 385 69;" xml:space="preserve">
<style type="text/css">
	.st0{fill:#858B8B;}
	.st1{fill:#171719;}
	.st2{fill:#E5E5E5;}
	.st3{fill:#FFFFFF;}
	.st4{fill:#FFC408;}
	.st5{fill:#58B2DC;}
	.st6{fill:#CB4042;}
	.st7{fill:#9CC5A1;}
	.st8{fill:#227D51;}
	.st9{fill:#2D3A3A;}
	.st10{fill:#734338;}
	.st11{opacity:0.5;fill:#FFFFFF;}
	.st12{opacity:0.5;fill:#FFC408;}
	.st13{opacity:0.5;fill:#58B2DC;}
	.st14{opacity:0.5;fill:#CB4042;}
	.st15{opacity:0.5;fill:#9CC5A1;}
	.st16{opacity:0.5;fill:#227D51;}
	.st17{opacity:0.5;}
	.st18{fill:#EED071;}
	.st19{fill:none;}
	.st20{clip-path:url(#SVGID_4_);}
	.st21{opacity:0.5;fill:#FFFFFF;stroke:#3D3D3D;stroke-miterlimit:10;}
	.st22{opacity:0.5;fill:none;stroke:#FFFFFF;stroke-width:4;stroke-miterlimit:10;}
	.st23{clip-path:url(#SVGID_10_);}
	.st24{opacity:0.8;fill:none;stroke:#FFFFFF;stroke-width:4;stroke-miterlimit:10;}
	.st25{fill:#2C2D31;}
	.st26{opacity:0.5;fill:#FFFFFF;stroke:#3D3D3D;stroke-width:2;stroke-miterlimit:10;}
</style>
<g>
	<path class="st26" d="M372,68H13C6.4,68,1,62.6,1,56V13C1,6.4,6.4,1,13,1h359c6.6,0,12,5.4,12,12v43C384,62.6,378.6,68,372,68z"/>
	<g class="st17">
		<g id="search_3_">
			<g>
				<path class="st9" d="M351.6,40h-1.4l-0.5-0.5c1.7-1.9,2.7-4.5,2.7-7.2c0-6.2-5-11.1-11.1-11.1c-6.2,0-11.1,5-11.1,11.1
					s5,11.1,11.1,11.1c2.7,0,5.3-1,7.2-2.7l0.5,0.5v1.4l8.6,8.6l2.6-2.6L351.6,40z M341.3,40c-4.3,0-7.7-3.4-7.7-7.7
					s3.4-7.7,7.7-7.7c4.3,0,7.7,3.4,7.7,7.7S345.6,40,341.3,40z"/>
			</g>
		</g>
	</g>
</g>
</svg>
