<?xml version="1.0" encoding="utf-8"?>
<!-- Generator: Adobe Illustrator 22.0.1, SVG Export Plug-In . SVG Version: 6.00 Build 0)  -->
<svg version="1.1" id="圖層_1" xmlns="http://www.w3.org/2000/svg" xmlns:xlink="http://www.w3.org/1999/xlink" x="0px" y="0px"
	 viewBox="0 0 60 60" style="enable-background:new 0 0 60 60;" xml:space="preserve">
<style type="text/css">
	.st0{fill:#858B8B;}
	.st1{fill:#FFFFFF;}
	.st2{fill:#CB4042;}
	.st3{fill:#2C2D31;}
	.st4{fill:#EED071;}
	.st5{fill:#58B2DC;}
</style>
<g>
	<circle class="st5" cx="30" cy="30" r="30"/>
	<path class="st1" d="M45,25.4H34.5V15c0-0.4-0.4-0.8-0.8-0.8h-7.6c-0.4,0-0.8,0.4-0.8,0.8v10.4H15c-0.4,0-0.8,0.4-0.8,0.8v7.7
		c0,0.4,0.4,0.8,0.8,0.8h10.4V45c0,0.4,0.4,0.8,0.8,0.8h7.6c0.4,0,0.8-0.4,0.8-0.8V34.7H45c0.4,0,0.8-0.4,0.8-0.8v-7.7
		C45.8,25.8,45.5,25.4,45,25.4z"/>
</g>
</svg>
