<?xml version="1.0" encoding="utf-8"?>
<!-- Generator: Adobe Illustrator 22.0.1, SVG Export Plug-In . SVG Version: 6.00 Build 0)  -->
<svg version="1.1" id="圖層_1" xmlns="http://www.w3.org/2000/svg" xmlns:xlink="http://www.w3.org/1999/xlink" x="0px" y="0px"
	 viewBox="0 0 70 70" style="enable-background:new 0 0 70 70;" xml:space="preserve">
<style type="text/css">
	.st0{fill:#858B8B;}
	.st1{fill:#FFFFFF;}
	.st2{fill:#CB4042;}
	.st3{fill:#2C2D31;}
	.st4{fill:#EED071;}
	.st5{fill:#58B2DC;}
</style>
<path class="st1" d="M68.9,41.6c0.6,0,1.1-0.5,1.1-1.1V1.1C70,0.5,69.5,0,68.9,0H21.3c-0.6,0-1.1,0.5-1.1,1.1s0.5,1.1,1.1,1.1h46.5
	v37.2H66c0-2.6-2.2-4.8-4.8-4.7c-2.3,0-4.3,1.8-4.7,4.1l-7.4,12.8c-0.3,0.4-0.8,0.6-1.3,0.3c0,0,0,0,0,0l-12.9-8.2
	c0.5-0.6,0.9-1.3,1.2-2h15c0.6,0,1.1-0.5,1.1-1.1s-0.5-1.1-1.1-1.1H36.9c0.2-0.7,0.2-1.5,0.2-2.2v-0.9c2.7-0.6,4.4-3.3,3.8-6
	c-0.4-1.9-1.9-3.3-3.8-3.8C37,18.3,33.4,9.7,23.7,9.7H10.5c-0.6,0-1.1,0.4-1.1,1c0,0.2-0.5,5.4,2.4,9c-1,1.8-1.5,3.8-1.5,5.8v1
	c-2.7,0.6-4.4,3.3-3.8,6c0.4,1.9,1.9,3.3,3.8,3.8v0.9c0,2.4,0.8,4.8,2.4,6.7c-0.4,0.2-0.8,0.4-1.3,0.7c0,0,0,0,0,0
	c-0.9,0.6-1.8,1.2-2.7,1.9c-0.5,0.4-0.6,1.1-0.2,1.6c0.4,0.5,1.1,0.6,1.6,0.2c0,0,0,0,0,0c0.5-0.4,1.1-0.8,1.7-1.2l6.5,5.6
	c0.5,0.4,1.1,0.4,1.5-0.1l1.5-1.6l1.2,2.4l-3,15.3c-0.1,0.6,0.3,1.2,0.9,1.3c0,0,0,0,0,0c0.1,0,0.1,0,0.2,0c0.5,0,1-0.4,1.1-0.9
	l1.9-10l1.9,10c0.1,0.6,0.7,1,1.3,0.9c0.6-0.1,1-0.7,0.9-1.3c0,0,0,0,0,0l-3-15.3l1.2-2.4l1.5,1.6c0.4,0.4,1.1,0.5,1.5,0.1l6.6-5.7
	l10.9,6.9c1.5,0.9,3.4,0.5,4.4-1c0,0,0-0.1,0.1-0.1l6.9-11.9l4,2.3l-7.7,13.3c-2,3.5-6.6,4.8-10.1,2.7c0,0,0,0,0,0l-3.1-1.7
	c-0.5-0.3-1.2-0.1-1.5,0.5c-0.1,0.2-0.1,0.4-0.1,0.5l0.1,10.5c0,0.6,0.5,1.1,1.1,1.1h0c0.6,0,1.1-0.5,1.1-1.1c0,0,0,0,0,0l-0.1-8.6
	l1.4,0.8c4.6,2.7,10.5,1.1,13.2-3.5c0,0,0,0,0,0l8.3-14.3c0-0.1,0.1-0.2,0.1-0.3c0.1-0.1,0.2-0.1,0.2-0.2v9.5
	c-2.2,0.6-3.5,2.9-2.9,5.1c0.6,2.2,2.9,3.5,5.1,2.9c2.2-0.6,3.5-2.9,2.9-5.1c-0.4-1.4-1.5-2.5-2.9-2.9V41.6L68.9,41.6z M23.7,11.9
	c8.7,0,10.7,8.1,11.1,12.8l-0.2-0.2c-2.4-2.4-5.7-3.7-9.1-3.7h-6.2c-2.3,0-4.2-0.7-5.5-2.1c-1.9-2.1-2.2-5.2-2.2-6.8L23.7,11.9z
	 M8.6,31.4c0-1.1,0.6-2.1,1.7-2.5v5.1C9.3,33.5,8.6,32.5,8.6,31.4L8.6,31.4z M12.5,25.5c0-1.4,0.3-2.9,1-4.2
	c1.7,1.2,3.7,1.7,5.8,1.7h6.2c2.8,0,5.5,1.1,7.5,3.1l2.3,2.2c0,0,0,0,0,0c0,0,0.1,0.1,0.1,0.1c0,0,0,0,0.1,0c0,0,0.1,0,0.1,0.1
	c0,0,0.1,0,0.1,0c0,0,0.1,0,0.1,0c0.1,0,0.1,0,0.2,0c1.5,0,2.8,1.2,2.8,2.8c0,1.1-0.6,2.1-1.6,2.5v-2.5c0-0.6-0.5-1.1-1.1-1.1
	c-0.6,0-1.1,0.5-1.1,1.1l0,0v5.8c0,4.7-3.8,8.4-8.4,8.4h-5.5c-4.7,0-8.4-3.8-8.4-8.4L12.5,25.5z M18.9,50.2l-5.1-4.4
	c0.2-0.1,0.3-0.2,0.5-0.2c1.9,1.5,4.2,2.3,6.6,2.3h0.2L18.9,50.2z M23.7,50.7l-0.7-1.5l0.7-0.8l0.7,0.8L23.7,50.7z M28.5,50.2
	l-2.2-2.3h0.2c2.5,0,5-0.9,6.9-2.6l0.4,0.3L28.5,50.2z M58.8,38.7c0.4-1.3,1.8-2.1,3.2-1.7c1.3,0.4,2.1,1.8,1.7,3.2
	c-0.1,0.4-0.3,0.7-0.6,1L58.8,38.7z M67.8,56.3c0,1.1-0.9,1.9-1.9,1.9s-1.9-0.9-1.9-1.9c0-1.1,0.9-1.9,1.9-1.9
	C66.9,54.3,67.8,55.2,67.8,56.3z M15.5,1.1C15.5,0.5,16,0,16.6,0h0.4c0.6,0,1.1,0.5,1.1,1.1s-0.5,1.1-1.1,1.1h-0.4
	C16,2.2,15.5,1.7,15.5,1.1z M1.1,41.6c-0.6,0-1.1-0.5-1.1-1.1V1.1C0,0.5,0.5,0,1.1,0h10.8C12.5,0,13,0.5,13,1.1s-0.5,1.1-1.1,1.1
	l0,0H2.2v37.2h5.3c0.6,0,1.1,0.5,1.1,1.1s-0.5,1.1-1.1,1.1H1.1z M59.9,10.6c0,0.6-0.5,1.1-1.1,1.1H35c-0.6,0-1.1-0.5-1.1-1.1
	c0-0.6,0.5-1.1,1.1-1.1l0,0h23.8C59.4,9.5,59.9,10,59.9,10.6L59.9,10.6z M59.9,15.9c0,0.6-0.5,1.1-1.1,1.1H38.4
	c-0.6,0-1.1-0.5-1.1-1.1s0.5-1.1,1.1-1.1h20.4C59.4,14.8,59.9,15.3,59.9,15.9L59.9,15.9z M59.9,21.2c0,0.6-0.5,1.1-1.1,1.1h-5.7
	c-0.6,0-1.1-0.5-1.1-1.1s0.5-1.1,1.1-1.1h5.7C59.4,20.1,59.9,20.6,59.9,21.2L59.9,21.2z M48.6,22.3h-8.3c-0.6,0-1.1-0.5-1.1-1.1
	s0.5-1.1,1.1-1.1h8.3c0.6,0,1.1,0.5,1.1,1.1S49.2,22.3,48.6,22.3L48.6,22.3z M59.9,26.5c0,0.6-0.5,1.1-1.1,1.1H43.5
	c-0.6,0-1.1-0.5-1.1-1.1c0-0.6,0.5-1.1,1.1-1.1h15.3C59.4,25.4,59.9,25.9,59.9,26.5L59.9,26.5z M59.9,31.8c0,0.6-0.5,1.1-1.1,1.1
	H44.9c-0.6,0-1.1-0.5-1.1-1.1c0-0.6,0.5-1.1,1.1-1.1h13.9C59.4,30.7,59.9,31.2,59.9,31.8L59.9,31.8z M7.2,49.4
	c0.5,0.4,0.5,1.1,0.2,1.6c0,0,0,0,0,0c-2.9,3.5-4.4,7.9-4.4,12.4v5.6c0,0.6-0.5,1.1-1.1,1.1s-1.1-0.5-1.1-1.1l0,0v-5.6
	c0-5,1.7-9.9,4.9-13.8C6,49,6.7,49,7.2,49.4L7.2,49.4z M10.1,64.3v4.6c0,0.6-0.5,1.1-1.1,1.1s-1.1-0.5-1.1-1.1v-4.6
	c0-0.6,0.5-1.1,1.1-1.1S10.1,63.7,10.1,64.3L10.1,64.3z M10.1,59.7v0.7c0,0.6-0.5,1.1-1.1,1.1S7.9,61,7.9,60.4l0,0v-0.7
	c0-0.6,0.5-1.1,1.1-1.1S10.1,59.1,10.1,59.7z M20.7,35.1c0.6,0,1.1,0.5,1.1,1.1c0.1,1.1,1,1.9,2,1.8c1,0,1.8-0.8,1.8-1.8
	c0-0.6,0.5-1.1,1.1-1.1s1.1,0.5,1.1,1.1c-0.1,2.3-2,4.1-4.3,4c-2.2-0.1-3.9-1.8-4-4C19.5,35.6,20,35.1,20.7,35.1L20.7,35.1z
	 M18.9,31.4c1,0,1.8-0.8,1.8-1.8c0-1-0.8-1.8-1.8-1.8c-1,0-1.8,0.8-1.8,1.8C17,30.5,17.8,31.4,18.9,31.4z M28.5,31.4
	c1,0,1.8-0.8,1.8-1.8c0-1-0.8-1.8-1.8-1.8c-1,0-1.8,0.8-1.8,1.8c0,0,0,0,0,0C26.7,30.5,27.5,31.4,28.5,31.4z"/>
</svg>
