<?xml version="1.0" encoding="utf-8"?>
<!-- Generator: Adobe Illustrator 22.0.1, SVG Export Plug-In . SVG Version: 6.00 Build 0)  -->
<svg version="1.1" id="圖層_1" xmlns="http://www.w3.org/2000/svg" xmlns:xlink="http://www.w3.org/1999/xlink" x="0px" y="0px"
	 viewBox="0 0 54 54" style="enable-background:new 0 0 54 54;" xml:space="preserve">
<style type="text/css">
	.st0{fill:#858B8B;}
	.st1{fill:#171719;}
	.st2{fill:#E5E5E5;}
	.st3{fill:#FFFFFF;}
	.st4{fill:#FFC408;}
	.st5{fill:#58B2DC;}
	.st6{fill:#CB4042;}
	.st7{fill:#9CC5A1;}
	.st8{fill:#227D51;}
	.st9{fill:#2D3A3A;}
	.st10{fill:#734338;}
	.st11{opacity:0.5;fill:#FFFFFF;}
	.st12{opacity:0.5;fill:#FFC408;}
	.st13{opacity:0.5;fill:#58B2DC;}
	.st14{opacity:0.5;fill:#CB4042;}
	.st15{opacity:0.5;fill:#9CC5A1;}
	.st16{opacity:0.5;fill:#227D51;}
	.st17{opacity:0.5;}
	.st18{fill:#EED071;}
	.st19{fill:none;}
	.st20{clip-path:url(#SVGID_4_);}
	.st21{opacity:0.5;fill:#FFFFFF;stroke:#3D3D3D;stroke-miterlimit:10;}
	.st22{opacity:0.5;fill:none;stroke:#FFFFFF;stroke-width:4;stroke-miterlimit:10;}
	.st23{clip-path:url(#SVGID_10_);}
	.st24{opacity:0.8;fill:none;stroke:#FFFFFF;stroke-width:4;stroke-miterlimit:10;}
	.st25{fill:#2C2D31;}
	.st26{opacity:0.5;fill:#FFFFFF;stroke:#3D3D3D;stroke-width:2;stroke-miterlimit:10;}
</style>
<g>
	<circle class="st3" cx="10" cy="10" r="9"/>
	<g class="st17">
		<path class="st9" d="M10,3c3.9,0,7,3.1,7,7s-3.1,7-7,7s-7-3.1-7-7S6.1,3,10,3 M10,1c-5,0-9,4-9,9s4,9,9,9s9-4,9-9S15,1,10,1L10,1z
			"/>
	</g>
</g>
<g>
	<circle class="st3" cx="10" cy="44" r="9"/>
	<g class="st17">
		<path class="st9" d="M10,37c3.9,0,7,3.1,7,7s-3.1,7-7,7s-7-3.1-7-7S6.1,37,10,37 M10,35c-5,0-9,4-9,9s4,9,9,9s9-4,9-9S15,35,10,35
			L10,35z"/>
	</g>
</g>
<g>
	<circle class="st3" cx="44" cy="10" r="9"/>
	<g class="st17">
		<path class="st9" d="M44,3c3.9,0,7,3.1,7,7s-3.1,7-7,7s-7-3.1-7-7S40.1,3,44,3 M44,1c-5,0-9,4-9,9s4,9,9,9s9-4,9-9S49,1,44,1L44,1
			z"/>
	</g>
</g>
<g>
	<circle class="st3" cx="44" cy="44" r="9"/>
	<g class="st17">
		<path class="st9" d="M44,37c3.9,0,7,3.1,7,7s-3.1,7-7,7s-7-3.1-7-7S40.1,37,44,37 M44,35c-5,0-9,4-9,9s4,9,9,9s9-4,9-9
			S49,35,44,35L44,35z"/>
	</g>
</g>
</svg>
