<?xml version="1.0" encoding="utf-8"?>
<!-- Generator: Adobe Illustrator 22.1.0, SVG Export Plug-In . SVG Version: 6.00 Build 0)  -->
<svg version="1.1" id="圖層_1" xmlns="http://www.w3.org/2000/svg" xmlns:xlink="http://www.w3.org/1999/xlink" x="0px" y="0px"
	 viewBox="0 0 100 100" style="enable-background:new 0 0 100 100;" xml:space="preserve">
<style type="text/css">
	.st0{fill:#FF525B;}
	.st1{fill:#CC4452;}
</style>
<g>
	<path class="st0" d="M50,3c25.9,0,47,21.1,47,47S75.9,97,50,97S3,75.9,3,50S24.1,3,50,3 M50,0C22.4,0,0,22.4,0,50s22.4,50,50,50
		s50-22.4,50-50S77.6,0,50,0L50,0z"/>
</g>
<path class="st0" d="M78.3,65.8L62.8,50.5l15.4-15.1c1.1-1.2,1.1-3.2,0-4.4l-8.8-8.8c-1.2-1.2-3.1-1.2-4.4,0l-14.7,16l-16.4-16
	c-1.2-1.2-3.1-1.2-4.4,0l-7.8,7.7c-1.2,1.2-1.2,3.1,0,4.3l15.4,15.3L21.8,64.6c-1.1,1.2-1.1,3.2,0,4.4l8.8,8.8
	c1.2,1.2,3.1,1.2,4.4,0l14.7-16l16.4,16c1.2,1.2,3.1,1.2,4.4,0l7.8-7.7C79.4,68.9,79.4,67,78.3,65.8z"/>
<g>
	<g>
		<path class="st1" d="M62.8,50.5l15.4-15.1c1.2-1.2,1.2-3.1,0-4.3l-1.4-1.3L59.1,46.8L62.8,50.5z"/>
	</g>
	<path class="st1" d="M49.7,61.8l-3.2-3.3L29.3,76.6l1.2,1.3c1.2,1.2,3.1,1.2,4.3,0L49.7,61.8z"/>
	<g>
		<path class="st1" d="M63.1,74.9c1.2,1.2,3.1,1.2,4.4,0l7.8-7.7c1.2-1.2,1.2-3,0.1-4.2l2.8,2.8c1.2,1.2,1.2,3.1,0,4.3l-7.8,7.7
			c-1.3,1.2-3.2,1.2-4.4,0L63.1,74.9z"/>
	</g>
</g>
</svg>
