<?xml version="1.0" encoding="utf-8"?>
<!-- Generator: Adobe Illustrator 23.0.3, SVG Export Plug-In . SVG Version: 6.00 Build 0)  -->
<svg version="1.1" id="圖層_1" xmlns="http://www.w3.org/2000/svg" xmlns:xlink="http://www.w3.org/1999/xlink" x="0px" y="0px"
	 viewBox="0 0 142.1 73.6" style="enable-background:new 0 0 142.1 73.6;" xml:space="preserve">
<style type="text/css">
	.st0{fill:#9CC5A1;}
	.st1{fill:#2D3A3A;}
</style>
<g>
	<path class="st0" d="M61.5,43.6c0.1,1.7,0.8,2,2.3,2c7.6,0.1,15.2,0.2,22.8,0c2.7-0.2,5.4-0.5,8.2-0.6c1.2-0.1,1.5-0.5,1.6-1.7
		c0.5-6.9,0.2-13.7-0.2-20.5c-0.1-1.1-0.5-1.5-1.6-1.5C88.2,21,82,21.2,75.7,21.4c-2.2,0.1-1.1,2-1.4,3c-0.2,1,0,1.7,1.5,1.7
		c4.3-0.2,8.7-0.1,13-0.2c1.2,0,1.7,0.2,1.7,1.5c0,3.9,0.2,7.8,0.4,11.7c0.1,1.2-0.2,1.7-1.6,1.7c-6.9-0.1-13.9,0-20.8,0.1
		c-1.6,0-2-0.5-2-2c0-5.1-0.2-10.2-0.3-15.3c0-0.5,0.3-1.2-0.3-1.4c-1.5-0.4-3-0.2-4.3,0.3c-1,0.3-0.6,1.4-0.6,2.2
		C61,30.9,61.1,37.2,61.5,43.6z"/>
	<path class="st0" d="M132,53.9c-4.8-0.5-9.7-0.8-14.5-0.8c-0.9,0-2.3-0.5-2,1.3c0.2,1.4-0.5,3.2,2.1,3.2c3.4,0,6.8,0.4,10.1,0.5
		c1.2,0,1.9,0.2,1.8,1.7c-0.2,1.8-0.1,3.7-0.1,5.5c0,1.1-0.3,1.8-1.6,1.7c-2.4-0.1-4.7,0-6.5,0c-3.2-0.2-5.7-0.4-8.3-0.4
		c-1.6,0-1.2-1-1.3-1.9c-0.1-1.3,0.6-1.3,1.5-1.2c1.9,0.2,3.8,0.3,5.7,0.5c1.1,0.1,1.6-0.2,1.7-1.4c0.2-1.5,0.1-2.5-1.8-2.5
		c-1.1,0-2.2-0.3-3.3-0.4c-3.6-0.5-3.6-0.5-3.6-4.2c0-1.4-0.6-1.7-1.7-1.6c-1,0.1-2.6-0.7-2.8,1.2c-0.4,4.5-0.9,9.1-0.1,13.7
		c0.1,0.8,0.2,1.5,1.4,1.7c7.9,1.3,15.8,1.1,23.8,0.3c0.9-0.1,1.3-0.5,1.4-1.6c0.1-4.5,0.1-9-0.1-13.5C133.8,54.4,133.3,54,132,53.9
		z"/>
	<path class="st1" d="M52.6,55.5L52.6,55.5C52.6,55.4,52.6,55.4,52.6,55.5z"/>
	<path class="st0" d="M27.7,40.8c0.2-4.4,0.1-2.5,0.4-6.9c0.1-0.9-0.2-1-1-1.1c-2.5,0-5-0.1-7.5-0.2c-0.8,0-1,0.3-1,1
		c0.1-1.9-0.2,2.2-0.6,7.9c2.8,0.1,5.5,0.2,8.3,0.3C27.3,42,27.6,41.8,27.7,40.8z"/>
	<path class="st0" d="M76,53.3c-4.2-0.3-8.4-0.7-12.6-1c-0.7,0-1.9-0.7-1.8,0.7c0.1,1.2-1.1,3,1.4,3.5c2.5,0.5,5.1,0.8,7.7,1
		c1.3,0.1,1.6,0.5,1.4,1.7c-0.2,2.5-0.4,5-0.4,7.5c0,1.4-0.4,1.9-1.8,1.8c-3.3-0.2-6.6-0.3-9.9-0.2c-1.4,0-1.7-0.5-1.7-1.8
		c-0.2-3.8-0.9-10.6-0.8-12s0-30.8,0-46.3c0-3-0.5-3.6-3.5-4C43.7,3.1,33.4,1.8,23.2,0.6c-1.8-0.2-6.7-1.3-11.8,0.3
		c-1.1,0.7-2.5,1.4-3.7,2.3C3.9,5.7,0.1,8.7,0.1,13.7C-0.1,30.7,0,47.6,0,64.6c0,2.2,0.9,3.1,3.1,3.4c12,1.5,24,3,36,4.6
		c2.5,0.3,3.6-0.7,3.6-3.2c0-4.3,0-8.6,0-12.9c0-11.5,0-22.9,0-34.4c0-2.2-0.9-3.4-3.1-3.6c-1.7-0.2-3.5-0.4-5.2-0.6
		c-9-1.1-18-2.3-27-3.4c-2.4-0.3-3-1.2-1.4-3.1c1.8-2,6.5-6.1,13.4-6.5c1-0.1,20.3,2.6,30.5,3.7c2.2,0.2,2.7,0.9,2.7,3
		c-0.1,14.5,0,44.6,0,43.9c0.1,1.1,0.9,12.1,1.2,15.4c0.1,0.7,0.1,1.3,1.1,1.5c6.6,1.4,13.1,1.5,19.8,0.5c1.3-0.2,1.6-1,1.8-2.1
		c0.8-5.3,1-10.6,1-15.9C77.5,53.8,77.2,53.4,76,53.3z M15.8,30c0-0.2,0-0.2,0-0.2c0.1-0.6,0.3-0.8,1-0.8c4.4,0,8.7,0.1,13.1,0.6
		c0.8,0.1,1,0.3,1,1.1c0,1.7,0.1,3.5,0.1,5.2c-0.2,4.8-0.1,3.3-0.5,8.1c-0.1,0.9-0.3,1.3-1.4,1.4c-3.8,0-7.6-0.1-11.3-0.4
		c-0.2,4.3-0.4,8.9-0.5,12.3c0,0.9-0.5,1.1-1.1,0.9c-0.7-0.2-1.9,0.4-1.9-1c0.2-9.6,1.5-26.7,1.5-27.4C15.9,29.8,15.9,29.9,15.8,30z
		"/>
	<path class="st0" d="M101.7,53.6c-2.9-0.2-5.7-0.6-8.6-1c-1.3-0.2-2.4-0.2-2.4,1.5c0,1.4-0.4,2.7,1.8,3c2.1,0.2,5.1-0.4,6.1,1.4
		c0.9,1.8,0.1,4.4,0,6.7c0,0.1,0,0.1,0,0.2c0,1.3-0.7,1.9-1.9,1.9c-2.1,0-4.1,0-6.2,0.1c-1.5,0.1-1.8-0.6-1.9-2
		c0-3.6-0.2-7.2-0.4-10.8c0-0.6,0.2-1.4-0.7-1.7c-2-0.7-4.2,0.6-4.3,2.7c-0.2,4.9,0.1,9.7,0.6,14.6c0.1,1.1,0.6,1.5,1.6,1.5
		c2.6,0.1,5.1,0.3,8,0.5c2.4-0.1,5.1-0.3,7.7-0.4c0.9,0,1.6-0.2,1.7-1.3c0.7-5,1-10,0.7-15C103.6,54.3,103.1,53.7,101.7,53.6z"/>
	<path class="st0" d="M140.9,23.5c-1.3-0.2-3.2,0.5-3.9-0.7c-0.6-1.1-0.3-2.7-0.4-4.1c0-0.5-0.1-1-0.1-1.5c0.1-1.1-0.4-1.5-1.5-1.6
		c-4.2-0.5-8.5-1-12.8-1.1c-1.4,0-2.2-0.3-1.8-1.8c0.5-2.4-1.1-2.3-2.7-2.4c-1.7-0.1-2.7,0.3-2.4,2.2c0.2,1.2-0.3,1.6-1.6,1.5
		c-2.8-0.2-5.6-0.2-8.4-0.5c-2.1-0.2-1.9,1-2.1,2.4c-0.2,1.7,0.7,1.9,2,2c2.8,0.2,5.6,0.5,8.4,0.7c2,0.1,1.1,1.6,1.3,2.6
		c0.2,1.3-0.6,1.2-1.5,1.2c-4.2-0.1-8.4-0.2-12.6-0.4c-1.4-0.1-2,0.3-1.9,1.8c0.1,1.2-0.3,2.5,1.7,2.6c4.1,0.2,8.2,0.6,12.4,0.8
		c1.4,0.1,1.8,0.5,1.8,1.9c0,1.8-1.1,1.4-2,1.3c-0.7,0-1.5,0-2.2-0.1c-1.1-0.1-2.1-0.1-2.1,1.4c0,1.3,0.2,2.3,1.8,2.4
		c0.8,0,1.6,0.3,2.4,0.3c1.7,0,2.2,0.7,2.2,2.4c0,1.9-1.3,1.4-2.3,1.5c-0.8,0.1-1.6,0.1-2.4,0.1c-0.5,0-0.9,0.1-1.1,0.8
		c-0.5,2.3,0.4,3.4,2.7,3.4c0.4,0,0.9,0,1.3,0c1,0,1.7,0,1.7,1.3c0,1.2-0.5,1.5-1.6,1.5c-2.9,0.1-5.7,0.4-8.6,0.4
		c-1.4,0-1.9,0.5-1.6,1.8c0.2,1.1-0.6,2.8,1.7,2.7c3.2-0.1,6.3,0,9.5,0c0-0.1,0-0.1,0-0.2c5.2-0.3,10.3-0.6,15.5-0.8
		c1.6-0.1,1.5-0.9,1.5-2s0-2-1.6-2c-2.7,0.1-5.5,0.1-8.2,0c-0.7,0-1.8,0.5-1.6-1c0.1-1,0.1-1.9,1.5-1.9c2,0,4-0.2,6-0.4
		c2.1-0.2,0.8-1.8,1-2.8c0.1-0.8,0.2-1.8-1.3-1.7c-1.6,0.2-3.2,0.1-4.9,0.2c-1,0-2,0.4-1.9-1.4c0.1-1.7,1.1-1.2,1.9-1.2
		c3.5,0.1,7.1,0.4,10.6-0.1c3.1-0.4,3.7-0.9,4-3.7c0.4-3.5,0.4-3.6,4.1-3.7c1.6-0.1,1.3-1.1,1.3-1.9
		C141.9,24.9,142.7,23.7,140.9,23.5z M120.3,20.4c0.1-1,0.2-1.5,1.4-1.4c2.6,0.2,5.1,0.4,7.7,0.3c1.7,0,2,0.8,2,2.3
		c0,1.8-1.2,1-2,1.1c-1.1,0.1-2.2,0-3.3,0c0-0.1,0-0.1,0-0.2c-1.2,0-2.5-0.1-3.7,0C120.5,22.7,120.2,21.9,120.3,20.4z M129.4,30.7
		c-2.4,0-4.7-0.2-7.1-0.1c-1.5,0-2-0.4-2-2c0-1.8,1-1.4,2-1.4c1.3,0,2.5,0,3.8,0c0,0.1,0,0.1,0,0.2c1.1,0,2.2,0.1,3.3,0
		c1.5-0.2,2,0.3,2,1.9C131.4,31,130.4,30.7,129.4,30.7z"/>
	<path class="st0" d="M46.5,19.6c0-1.8-0.3-2.3-1.1-2.4c0,0-0.2,49,0.2,51.2s1.3-1.2,1.4-3.3c0-11.1,0-22.3-0.1-33.5
		C46.8,27.6,46.6,23.6,46.5,19.6z"/>
	<path class="st0" d="M50.5,16.5c0-1.7-0.3-2.2-1.1-2.3c0,0-0.2,47.1,0.2,49.3c0.4,2.2,1.3-1.1,1.4-3.2c0.1-10.7,0.1-21.5,0-32.2
		C50.8,24.2,50.6,20.4,50.5,16.5z"/>
	<path class="st0" d="M40.8,14.3c-7.5-1-15.1-2-22.6-2.9c-2.7-0.2-5.4-0.3-8.2-0.6c-1.2-0.1-1.6,0.1-1.8,1c0,0,33,4.4,34.6,4.2
		C44.4,15.8,42.3,14.5,40.8,14.3z"/>
	<path class="st0" d="M49.9,13.1c1.6-0.2-0.6-1.5-2.1-1.7c-7.8-1-15.6-2.1-23.3-2.9c-2.8-0.2-5.6-0.3-8.4-0.6
		c-1.2-0.1-1.6,0.1-1.8,1C14.3,8.9,48.3,13.3,49.9,13.1z"/>
</g>
</svg>
