<?xml version="1.0" encoding="utf-8"?>
<!-- Generator: Adobe Illustrator 22.0.1, SVG Export Plug-In . SVG Version: 6.00 Build 0)  -->
<svg version="1.1" id="圖層_1" xmlns="http://www.w3.org/2000/svg" xmlns:xlink="http://www.w3.org/1999/xlink" x="0px" y="0px"
	 viewBox="0 0 100 100" style="enable-background:new 0 0 100 100;" xml:space="preserve">
<style type="text/css">
	.st0{fill:#858B8B;}
	.st1{fill:#171719;}
	.st2{fill:#E5E5E5;}
	.st3{fill:#FFFFFF;}
	.st4{fill:#FFC408;}
	.st5{fill:#58B2DC;}
	.st6{fill:#CB4042;}
	.st7{fill:#9CC5A1;}
	.st8{fill:#227D51;}
	.st9{fill:#2D3A3A;}
	.st10{fill:#734338;}
	.st11{opacity:0.5;fill:#FFFFFF;}
	.st12{opacity:0.5;fill:#FFC408;}
	.st13{opacity:0.5;fill:#58B2DC;}
	.st14{opacity:0.5;fill:#CB4042;}
	.st15{opacity:0.5;fill:#9CC5A1;}
	.st16{opacity:0.5;fill:#227D51;}
	.st17{opacity:0.5;}
	.st18{fill:#EED071;}
	.st19{fill:none;}
	.st20{clip-path:url(#SVGID_4_);}
	.st21{opacity:0.5;fill:#FFFFFF;stroke:#3D3D3D;stroke-miterlimit:10;}
	.st22{opacity:0.5;fill:none;stroke:#FFFFFF;stroke-width:4;stroke-miterlimit:10;}
	.st23{clip-path:url(#SVGID_10_);}
	.st24{opacity:0.8;fill:none;stroke:#FFFFFF;stroke-width:4;stroke-miterlimit:10;}
	.st25{fill:#2C2D31;}
	.st26{opacity:0.5;fill:#FFFFFF;stroke:#3D3D3D;stroke-width:2;stroke-miterlimit:10;}
	.st27{fill:#979D9D;}
</style>
<g>
	<circle class="st3" cx="11.5" cy="11.5" r="9"/>
	<g class="st17">
		<path class="st9" d="M11.5,4.5c3.9,0,7,3.1,7,7s-3.1,7-7,7s-7-3.1-7-7S7.6,4.5,11.5,4.5 M11.5,2.5c-5,0-9,4-9,9s4,9,9,9s9-4,9-9
			S16.5,2.5,11.5,2.5L11.5,2.5z"/>
	</g>
</g>
<g>
	<circle class="st3" cx="88.5" cy="11.5" r="9"/>
	<g class="st17">
		<path class="st9" d="M88.5,4.5c3.9,0,7,3.1,7,7s-3.1,7-7,7s-7-3.1-7-7S84.6,4.5,88.5,4.5 M88.5,2.5c-5,0-9,4-9,9s4,9,9,9s9-4,9-9
			S93.5,2.5,88.5,2.5L88.5,2.5z"/>
	</g>
</g>
<g>
	<circle class="st3" cx="11.5" cy="88.5" r="9"/>
	<g class="st17">
		<path class="st9" d="M11.5,81.5c3.9,0,7,3.1,7,7s-3.1,7-7,7s-7-3.1-7-7S7.6,81.5,11.5,81.5 M11.5,79.5c-5,0-9,4-9,9s4,9,9,9
			s9-4,9-9S16.5,79.5,11.5,79.5L11.5,79.5z"/>
	</g>
</g>
<g>
	<circle class="st3" cx="88.5" cy="88.5" r="9"/>
	<g class="st17">
		<path class="st9" d="M88.5,81.5c3.9,0,7,3.1,7,7s-3.1,7-7,7s-7-3.1-7-7S84.6,81.5,88.5,81.5 M88.5,79.5c-5,0-9,4-9,9s4,9,9,9
			s9-4,9-9S93.5,79.5,88.5,79.5L88.5,79.5z"/>
	</g>
</g>
</svg>
