<?xml version="1.0" encoding="utf-8"?>
<!-- Generator: Adobe Illustrator 22.0.1, SVG Export Plug-In . SVG Version: 6.00 Build 0)  -->
<svg version="1.1" id="圖層_1" xmlns="http://www.w3.org/2000/svg" xmlns:xlink="http://www.w3.org/1999/xlink" x="0px" y="0px"
	 viewBox="0 0 100 100" style="enable-background:new 0 0 100 100;" xml:space="preserve">
<style type="text/css">
	.st0{fill:#FFFFFF;}
	.st1{opacity:0.5;}
	.st2{fill:#2D3A3A;}
</style>
<g>
	<circle class="st0" cx="5" cy="5" r="5"/>
	<g class="st1">
		<path class="st2" d="M5,1.1c2.2,0,3.9,1.7,3.9,3.9S7.2,8.9,5,8.9S1.1,7.2,1.1,5S2.8,1.1,5,1.1 M5,0C2.2,0,0,2.2,0,5s2.2,5,5,5
			s5-2.2,5-5S7.8,0,5,0L5,0z"/>
	</g>
</g>
<g>
	<circle class="st0" cx="95" cy="5" r="5"/>
	<g class="st1">
		<path class="st2" d="M95,1.1c2.2,0,3.9,1.7,3.9,3.9S97.2,8.9,95,8.9S91.1,7.2,91.1,5S92.8,1.1,95,1.1 M95,0c-2.8,0-5,2.2-5,5
			s2.2,5,5,5s5-2.2,5-5S97.8,0,95,0L95,0z"/>
	</g>
</g>
<g>
	<circle class="st0" cx="5" cy="95" r="5"/>
	<g class="st1">
		<path class="st2" d="M5,91.1c2.2,0,3.9,1.7,3.9,3.9S7.2,98.9,5,98.9S1.1,97.2,1.1,95S2.8,91.1,5,91.1 M5,90c-2.8,0-5,2.2-5,5
			s2.2,5,5,5s5-2.2,5-5S7.8,90,5,90L5,90z"/>
	</g>
</g>
<g>
	<circle class="st0" cx="95" cy="95" r="5"/>
	<g class="st1">
		<path class="st2" d="M95,91.1c2.2,0,3.9,1.7,3.9,3.9s-1.7,3.9-3.9,3.9s-3.9-1.7-3.9-3.9S92.8,91.1,95,91.1 M95,90
			c-2.8,0-5,2.2-5,5s2.2,5,5,5s5-2.2,5-5S97.8,90,95,90L95,90z"/>
	</g>
</g>
</svg>
